<svg width="115" height="44" viewBox="0 0 115 44" fill="none" xmlns="http://www.w3.org/2000/svg">
<path d="M2.54905 14.7101C0.924738 16.3226 0.0129389 18.5154 0.0161216 20.8016V34.5131L14.757 19.803C16.3801 18.1899 17.2907 15.9972 17.2867 13.7115V0L2.54905 14.7101Z" fill="#484D66"/>
<path d="M8.82638 28.454V33.3756C8.8234 34.416 8.45035 35.4214 7.7737 36.213L7.23925 36.7462L0 43.9849V37.26L1.04621 36.2162L7.26517 30.0116L8.82638 28.454Z" fill="#9F72FF"/>
<path fill-rule="evenodd" clip-rule="evenodd" d="M14.9492 17.0643C14.946 14.7781 15.8578 12.5853 17.4822 10.9728L28.4825 0V26.9357C28.4865 29.2214 27.5759 31.4141 25.9528 33.0272L14.9492 44V17.0643ZM17.2491 17.3502C17.2491 15.2366 17.4822 13.9429 19.134 12.475L26.4485 5.17469V22.3566C26.4485 24.4361 25.9528 25.7297 24.5653 27.2318L17.2491 34.5321V17.3502Z" fill="#484D66"/>
<path fill-rule="evenodd" clip-rule="evenodd" d="M38.8297 14.6935H42.3344C44.7377 14.6935 46.7816 16.1154 46.7816 19.166C46.7816 21.9354 44.741 23.5706 42.3344 23.5706H39.552V26.6212H36.1802V17.3369C36.1802 15.877 37.3664 14.6935 38.8297 14.6935ZM39.552 20.6589H41.7869V20.6557C42.6313 20.6557 43.3158 19.9728 43.3158 19.1304C43.3158 18.288 42.6313 17.6051 41.7869 17.6051H39.552V20.6589Z" fill="#9F72FF"/>
<path fill-rule="evenodd" clip-rule="evenodd" d="M94.1969 14.6935H97.7015C100.105 14.6935 102.149 16.1154 102.149 19.166C102.149 21.9354 100.108 23.5706 97.7015 23.5706H94.9192V26.6212H91.5474V17.3369C91.5474 15.877 92.7336 14.6935 94.1969 14.6935ZM94.9192 20.6589H97.1541V20.6557C97.9985 20.6557 98.683 19.9728 98.683 19.1304C98.683 18.288 97.9985 17.6051 97.1541 17.6051H94.9192V20.6589Z" fill="#484D66"/>
<path fill-rule="evenodd" clip-rule="evenodd" d="M106.986 14.6935H110.491C112.894 14.6935 114.938 16.1154 114.938 19.166C114.938 21.9354 112.897 23.5706 110.491 23.5706H107.708V26.6212H104.336V17.3369C104.336 15.877 105.523 14.6935 106.986 14.6935ZM107.708 20.6589H109.943V20.6557C110.788 20.6557 111.472 19.9728 111.472 19.1304C111.472 18.288 110.788 17.6051 109.943 17.6051H107.708V20.6589Z" fill="#484D66"/>
<path fill-rule="evenodd" clip-rule="evenodd" d="M54.9178 14.7C55.297 14.7235 55.6305 14.9586 55.7793 15.3075L59.9901 26.605H56.5794L55.8571 24.5885H51.1961L50.707 26.0072C50.5506 26.381 50.1834 26.6236 49.7774 26.6212H47.0825L51.5654 14.7H54.9178ZM53.5476 18.0059L52.035 22.1293H55.0408L53.5476 18.0059Z" fill="#9F72FF"/>
<path fill-rule="evenodd" clip-rule="evenodd" d="M84.5813 14.7C84.9606 14.7235 85.2941 14.9586 85.4429 15.3075L89.6375 26.605H86.2268L85.5045 24.5885H80.8435L80.3706 26.0072C80.2142 26.381 79.847 26.6236 79.441 26.6212H76.7461L81.2289 14.7H84.5813ZM83.2112 18.0059L81.6986 22.1293H84.7044L83.2112 18.0059Z" fill="#484D66"/>
<path d="M69.2505 20.6751L73.3446 26.6212H69.2861L66.873 22.8693L65.0203 25.7583C64.9944 25.8036 64.9652 25.8521 64.9328 25.8973C64.6271 26.3497 64.1161 26.621 63.5692 26.6212H60.437L62.1149 24.1781C62.1149 24.1587 62.1343 24.1458 62.1408 24.1264L62.293 23.9131L64.5085 20.6816L60.3755 14.6935H64.4502L66.873 18.497L68.8521 15.427C68.8521 15.427 68.8521 15.427 68.8521 15.4077C69.1258 15.0043 69.5647 14.7427 70.0505 14.6935H73.3737L69.2505 20.6751Z" fill="#9F72FF"/>
</svg>
